<svg width="1501" height="1069" viewBox="0 0 1501 1069" fill="none" xmlns="http://www.w3.org/2000/svg">
<g clip-path="url(#clip0_191_4)">
<g clip-path="url(#clip1_191_4)">
<g clip-path="url(#clip2_191_4)">
<g clip-path="url(#clip3_191_4)">
<g clip-path="url(#clip4_191_4)">
<g clip-path="url(#clip5_191_4)">
<g clip-path="url(#clip6_191_4)">
<g clip-path="url(#clip7_191_4)">
<g clip-path="url(#clip8_191_4)">
<path d="M790.404 448.3V762.509H723.092L601.932 555.639V762.509H539.108V448.3H606.33L727.49 655.35V448.3H790.404ZM1065.57 643.054C1065.57 660.585 1062.43 676.919 1056.15 692.057C1049.87 707.194 1041.34 720.268 1030.57 731.277C1019.74 742.286 1007.06 750.992 992.518 757.394C977.978 763.736 962.392 766.907 945.759 766.907C929.245 766.907 913.718 763.736 899.179 757.394C884.64 750.992 871.925 742.286 861.036 731.277C850.146 720.268 841.561 707.194 835.278 692.057C828.996 676.919 825.855 660.585 825.855 643.054C825.855 625.284 828.996 608.8 835.278 593.603C841.561 578.405 850.146 565.272 861.036 554.203C871.925 543.194 884.64 534.548 899.179 528.266C913.718 521.983 929.245 518.842 945.759 518.842C962.392 518.842 977.978 521.804 992.518 527.727C1007.06 533.651 1019.74 542.057 1030.57 552.947C1041.34 563.836 1049.87 576.909 1056.15 592.167C1062.43 607.424 1065.57 624.386 1065.57 643.054ZM1005.35 643.054C1005.35 633.421 1003.77 624.715 1000.59 616.937C997.484 609.099 993.206 602.368 987.761 596.744C982.376 591.12 976.064 586.812 968.824 583.82C961.584 580.828 953.896 579.333 945.759 579.333C937.562 579.333 929.843 580.828 922.603 583.82C915.364 586.812 909.081 591.12 903.756 596.744C898.431 602.368 894.243 609.099 891.191 616.937C888.14 624.715 886.614 633.421 886.614 643.054C886.614 652.149 888.14 660.555 891.191 668.273C894.243 676.052 898.431 682.783 903.756 688.467C909.081 694.151 915.364 698.638 922.603 701.929C929.843 705.22 937.562 706.865 945.759 706.865C953.896 706.865 961.584 705.34 968.824 702.288C976.064 699.177 982.376 694.869 987.761 689.364C993.206 683.8 997.484 677.069 1000.59 669.171C1003.77 661.273 1005.35 652.567 1005.35 643.054ZM1259.88 762.509H1214.56C1200.08 762.509 1186.49 759.757 1173.81 754.252C1161.13 748.808 1150 741.299 1140.42 731.726C1130.85 722.152 1123.31 711.024 1117.81 698.339C1112.36 685.595 1109.64 672.013 1109.64 657.593V587.859H1080.47V528.266H1109.64V434.479H1169.23V528.266H1259.88V587.859H1169.23V657.593C1169.23 663.876 1170.4 669.739 1172.73 675.184C1175.07 680.689 1178.27 685.475 1182.34 689.544C1186.46 693.612 1191.28 696.873 1196.79 699.326C1202.35 701.72 1208.27 702.916 1214.56 702.916H1259.88V762.509ZM1498.97 569.909L1386.78 705.07C1389.12 705.848 1391.45 706.327 1393.78 706.506C1396.12 706.746 1398.45 706.865 1400.78 706.865C1406.65 706.865 1412.27 706.057 1417.66 704.442C1423.04 702.827 1428.13 700.523 1432.91 697.531C1437.64 694.54 1441.86 690.89 1445.57 686.582C1449.34 682.274 1452.39 677.488 1454.72 672.222L1498.52 716.289C1492.96 724.187 1486.55 731.277 1479.31 737.559C1472.07 743.842 1464.27 749.167 1455.89 753.534C1447.51 757.902 1438.69 761.223 1429.41 763.497C1420.14 765.77 1410.6 766.907 1400.78 766.907C1384.27 766.907 1368.74 763.826 1354.2 757.663C1339.66 751.56 1326.95 743.034 1316.06 732.085C1305.23 721.135 1296.68 708.092 1290.39 692.954C1284.11 677.817 1280.97 661.183 1280.97 643.054C1280.97 624.506 1284.11 607.573 1290.39 592.256C1296.68 576.939 1305.23 563.866 1316.06 553.036C1326.95 542.207 1339.66 533.8 1354.2 527.817C1368.74 521.834 1384.27 518.842 1400.78 518.842C1410.6 518.842 1420.17 520.009 1429.5 522.342C1438.84 524.676 1447.69 528.056 1456.07 532.484C1464.5 536.852 1472.37 542.207 1479.67 548.549C1486.97 554.891 1493.4 562.011 1498.97 569.909ZM1347.74 674.197L1417.48 581.756C1414.66 580.739 1411.91 580.08 1409.22 579.781C1406.53 579.482 1403.72 579.333 1400.78 579.333C1392.59 579.333 1384.87 580.828 1377.63 583.82C1370.45 586.812 1364.17 591.09 1358.78 596.654C1353.46 602.218 1349.27 608.89 1346.22 616.668C1343.16 624.506 1341.64 633.301 1341.64 643.054C1341.64 645.268 1341.73 647.751 1341.91 650.503C1342.15 653.315 1342.54 656.127 1343.08 658.94C1343.55 661.811 1344.15 664.564 1344.87 667.196C1345.65 669.829 1346.61 672.162 1347.74 674.197Z" fill="#8ABE53"/>
</g>
</g>
</g>
</g>
<g clip-path="url(#clip9_191_4)">
<g clip-path="url(#clip10_191_4)">
<path d="M138.952 830.401C62.8317 830.401 1.1275 768.697 1.1275 692.576V508.81C1.1275 432.689 62.8317 370.985 138.952 370.985H322.719C398.839 370.985 460.543 432.689 460.543 508.81V692.576C460.543 768.697 398.839 830.401 322.719 830.401H138.952Z" fill="#8ABE53"/>
<g clip-path="url(#clip11_191_4)">
<g clip-path="url(#clip12_191_4)">
<path d="M306.871 481.839C311.272 481.839 314.875 485.44 314.875 489.843V679.665C314.875 684.066 312.322 690.21 309.204 693.315L288.533 713.898C285.415 717.006 279.262 719.547 274.858 719.547H154.8C150.397 719.547 146.796 715.946 146.796 711.543V489.843C146.796 485.44 150.397 481.839 154.8 481.839H306.871ZM306.871 473.917H154.8C146.019 473.917 138.874 481.062 138.874 489.843V711.543C138.874 720.324 146.019 727.469 154.8 727.469H274.856C281.389 727.469 289.491 724.122 294.123 719.513L314.793 698.93C319.43 694.312 322.797 686.21 322.797 679.665V489.843C322.797 481.062 315.652 473.917 306.871 473.917Z" fill="white"/>
<path d="M282.059 721.91C279.87 721.91 278.098 720.135 278.098 717.949V693.938C278.098 687.342 283.465 681.973 290.063 681.973H314.075C316.264 681.973 318.036 683.748 318.036 685.934C318.036 688.12 316.261 689.895 314.075 689.895H290.063C287.835 689.895 286.023 691.706 286.023 693.935V717.946C286.02 720.135 284.248 721.91 282.059 721.91Z" fill="white"/>
<path d="M303.935 528.091H158.268C156.079 528.091 154.307 526.316 154.307 524.13C154.307 521.943 156.082 520.168 158.268 520.168H303.933C306.122 520.168 307.894 521.943 307.894 524.13C307.894 526.316 306.122 528.091 303.935 528.091Z" fill="white"/>
<path d="M303.935 550.899H158.268C156.079 550.899 154.307 549.124 154.307 546.938C154.307 544.752 156.082 542.977 158.268 542.977H303.933C306.122 542.977 307.894 544.752 307.894 546.938C307.894 549.124 306.122 550.899 303.935 550.899Z" fill="white"/>
<path d="M303.935 573.711H158.268C156.079 573.711 154.307 571.936 154.307 569.75C154.307 567.563 156.082 565.789 158.268 565.789H303.933C306.122 565.789 307.894 567.563 307.894 569.75C307.894 571.936 306.122 573.711 303.935 573.711Z" fill="white"/>
<path d="M303.935 596.522H158.268C156.079 596.522 154.307 594.747 154.307 592.561C154.307 590.375 156.082 588.6 158.268 588.6H303.933C306.122 588.6 307.894 590.375 307.894 592.561C307.894 594.747 306.122 596.522 303.935 596.522Z" fill="white"/>
<path d="M303.935 619.331H158.268C156.079 619.331 154.307 617.556 154.307 615.37C154.307 613.184 156.082 611.409 158.268 611.409H303.933C306.122 611.409 307.894 613.184 307.894 615.37C307.894 617.556 306.122 619.331 303.935 619.331Z" fill="white"/>
<path d="M303.935 642.142H158.268C156.079 642.142 154.307 640.368 154.307 638.181C154.307 635.995 156.082 634.22 158.268 634.22H303.933C306.122 634.22 307.894 635.995 307.894 638.181C307.894 640.368 306.122 642.142 303.935 642.142Z" fill="white"/>
<path d="M303.935 664.951H158.268C156.079 664.951 154.307 663.176 154.307 660.99C154.307 658.804 156.082 657.029 158.268 657.029H303.933C306.122 657.029 307.894 658.804 307.894 660.99C307.894 663.176 306.122 664.951 303.935 664.951Z" fill="white"/>
</g>
</g>
</g>
</g>
</g>
</g>
</g>
</g>
</g>
<defs>
<clipPath id="clip0_191_4">
<rect width="1500" height="1068" fill="white" transform="translate(0.0909424 0.397461)"/>
</clipPath>
<clipPath id="clip1_191_4">
<rect width="1497.93" height="936.204" fill="white" transform="translate(1.1275 132.591)"/>
</clipPath>
<clipPath id="clip2_191_4">
<rect width="1497.93" height="936.204" fill="white" transform="translate(1.1275 132.591)"/>
</clipPath>
<clipPath id="clip3_191_4">
<rect width="1497.93" height="459.416" fill="white" transform="translate(1.1275 370.985)"/>
</clipPath>
<clipPath id="clip4_191_4">
<rect width="1497.93" height="459.416" fill="white" transform="translate(1.1275 370.985)"/>
</clipPath>
<clipPath id="clip5_191_4">
<rect width="960.032" height="332.428" fill="white" transform="translate(539.022 434.479)"/>
</clipPath>
<clipPath id="clip6_191_4">
<rect width="960.032" height="332.428" fill="white" transform="translate(539.022 434.479)"/>
</clipPath>
<clipPath id="clip7_191_4">
<rect width="960.032" height="332.428" fill="white" transform="translate(539.022 434.479)"/>
</clipPath>
<clipPath id="clip8_191_4">
<rect width="960.032" height="332.428" fill="white" transform="translate(539.022 434.479)"/>
</clipPath>
<clipPath id="clip9_191_4">
<rect width="459.416" height="459.416" fill="white" transform="translate(1.1275 370.985)"/>
</clipPath>
<clipPath id="clip10_191_4">
<rect width="459.416" height="459.416" fill="white" transform="translate(1.1275 370.985)"/>
</clipPath>
<clipPath id="clip11_191_4">
<rect width="183.923" height="253.552" fill="white" transform="translate(138.874 473.917)"/>
</clipPath>
<clipPath id="clip12_191_4">
<rect width="183.923" height="253.552" fill="white" transform="translate(138.874 473.917)"/>
</clipPath>
</defs>
</svg>
